<svg width="320" height="235" enable-background="new 0 0 1400 980" version="1.1" viewBox="0 0 320 235" xml:space="preserve"
     xmlns="http://www.w3.org/2000/svg"><path d="m47.064 225.35c-4.3828-3.9768-5.0095-5.2265-5.0095-9.9901 0-3.391 4.8886-20.94 12.961-46.527 7.1283-22.595 12.79-41.215 12.581-41.377-0.20893-0.16238-10.319 3.1349-22.467 7.3273-24.866 8.5814-28.298 8.8233-35.282 2.4859-3.3092-3.0026-3.9212-4.4602-3.9212-9.3389 0-10.27 2.4887-11.707 46.276-26.714 42.96-14.723 46.221-15.294 53.639-9.3837 7.8132 6.2245 7.7291 6.8802-6.989 54.505-7.2612 23.496-12.977 42.924-12.702 43.174 0.27526 0.24976 10.348-2.9428 22.385-7.0946 12.036-4.1518 23.253-7.5487 24.926-7.5487 5.004 0 11.798 3.5912 13.955 7.3766 2.8305 4.9665 1.6591 13.128-2.4149 16.824-4.2881 3.8909-81.071 30.795-87.938 30.813-4.0864 0.0105-5.898-0.81048-10-4.5324zm198.33-71.934c-6.1308-5.5628-5.0604-8.3625 13.479-35.255 9.2484-13.415 16.608-24.579 16.355-24.809-0.25298-0.22953-6.725 0.12129-14.382 0.7796-14.458 1.243-17.889 0.90722-21.692-2.1227-3.1651-2.5218-2.997-10.132 0.28975-13.114 3.3328-3.024 4.0119-3.1297 34.397-5.3549 23.494-1.7205 26.347-1.729 29.844-0.0881 9.1526 4.2945 7.9363 8.2408-11.233 36.448-10.962 16.13-16.103 24.701-14.956 24.936 0.96097 0.19694 7.7255-0.13314 15.032-0.7335 14.279-1.1732 19.633-0.35132 21.815 3.3486 1.9898 3.3736 1.4803 8.8173-1.0955 11.704-2.0994 2.3525-4.3324 2.8105-20.323 4.1682-9.8802 0.83889-23.866 1.8842-31.08 2.323-12.918 0.78572-13.166 0.75214-16.452-2.2291zm-114.28-13.379c-5.5336-2.5226-10.348-8.8213-10.348-13.538 0-2.2692 8.32-18.352 23.242-44.928 19.908-35.456 22.823-41.307 20.323-40.792-6.3195 1.301-42.147 6.4756-44.835 6.4756-4.7148 0-11.623-3.6124-13.625-7.1244-4.1849-7.3429-1.1003-17.039 6.4518-20.281 4.9646-2.131 78.426-13.572 87.144-13.572 5.547 0 7.176 0.56314 11.123 3.8452 3.6529 3.0375 4.7636 4.9664 5.2873 9.1819 0.63061 5.0764-0.45114 7.3198-22.181 46.001-12.564 22.365-22.581 40.902-22.26 41.194 0.32133 0.29157 11.552-1.1272 24.957-3.1529 22.809-3.4467 24.677-3.5678 29.111-1.8863 9.1652 3.4753 12.671 13.484 7.26 20.725-1.6843 2.2538-4.5376 4.7416-6.3405 5.5285-2.8955 1.2638-83.946 14.367-88.884 14.37-1.0645 5.9e-4 -3.9562-0.92011-6.4259-2.046z" fill="#999" stroke="#2d2d2d" stroke-width="1.2291" style="mix-blend-mode:normal"/></svg>
