<svg width="210mm" height="297mm" version="1.1" viewBox="0 0 210 297" xmlns="http://www.w3.org/2000/svg">
    <rect x=".042351" width="209.95" height="297" ry="25" fill="#cdcdcd" stroke-width=".26458"/>
    <g stroke-width=".26458">
        <g aria-label="♣">
            <path d="m130.71 185.61h-51.125l0.48231-2.0498q9.9477-2.1101 13.203-4.16 4.8834-3.0747 7.9582-9.1036 3.135-6.0289 3.135-12.721 0-0.96462-0.0603-2.7733-3.6776 7.4758-8.9831 10.912-5.2451 3.4365-10.731 3.4365-6.9935 0-11.877-4.8834-4.8834-4.8834-4.8834-11.998 0-6.9935 4.4614-11.756 4.4614-4.8231 10.129-4.8231 3.6173 0 9.8271 3.0747-2.5321-4.2202-3.3159-6.3304-0.72347-2.1704-0.72347-4.6423 0-6.873 4.7628-11.636 4.7628-4.7628 11.877-4.7628 7.1141 0 11.937 4.7628 4.8834 4.7628 4.8834 11.334 0 5.3657-4.1599 11.274 5.0643-2.4116 6.0892-2.713 1.6278-0.48232 3.6776-0.48232 6.0289 0 10.43 4.7628 4.4614 4.7026 4.4614 11.696 0 7.2347-4.8834 12.178-4.8231 4.8834-11.636 4.8834-3.7982 0-7.8376-1.8087-3.9791-1.869-6.9332-4.9437-2.1101-2.2307-5.2452-7.5361 0.24116 9.586 2.8939 15.193 2.713 5.5466 8.2596 9.2242 3.7379 2.4719 13.444 4.3408z"/>
        </g>
        <g aria-label="55">
            <path d="m49.942 17.214-2.5011 6.0634q-0.15158 0.53054-1.2127 0.53054h-13.794l-3.9412 10.308q6.7455 1.6674 8.5645 2.5011 4.3201 1.819 7.4276 5.7602 4.3959 5.7602 4.3201 13.946-0.15158 8.4129-5.5328 14.173-5.457 5.7602-14.022 5.7602-7.276 0-8.7161-3.638-0.07579-0.15158-0.07579-0.53054 0-2.1222 2.0464-2.1222 2.4253 0 5.836 1.5158 3.4106 1.5158 5.457 1.5158 4.3959-0.07579 7.5034-3.2591 3.7138-3.9412 3.8654-11.369 0.15158-9.9288-7.9582-14.779-5.836-3.4864-14.4-3.7138-0.15158 0 0-0.45475l7.9582-20.085h13.87q1.9706 0 3.638-1.9706z"/>
            <path d="m88.748 17.214-2.5011 6.0634q-0.15158 0.53054-1.2127 0.53054h-13.794l-3.9412 10.308q6.7455 1.6674 8.5645 2.5011 4.3201 1.819 7.4276 5.7602 4.3959 5.7602 4.3201 13.946-0.15158 8.4129-5.5328 14.173-5.457 5.7602-14.022 5.7602-7.276 0-8.7161-3.638-0.07579-0.15158-0.07579-0.53054 0-2.1222 2.0464-2.1222 2.4253 0 5.836 1.5158 3.4106 1.5158 5.457 1.5158 4.3959-0.07579 7.5034-3.2591 3.7138-3.9412 3.8654-11.369 0.15158-9.9288-7.9582-14.779-5.836-3.4864-14.4-3.7138-0.15158 0 0-0.45475l7.9582-20.085h13.87q1.9706 0 3.638-1.9706z"/>
        </g>
        <g transform="scale(1,-1)" aria-label="55">
            <path d="m153.69-277.64-2.5011 6.0634q-0.15158 0.53054-1.2127 0.53054h-13.794l-3.9412 10.308q6.7455 1.6674 8.5645 2.5011 4.3202 1.819 7.4276 5.7602 4.3959 5.7602 4.3202 13.946-0.15158 8.4129-5.5328 14.173-5.457 5.7602-14.022 5.7602-7.276 0-8.7161-3.638-0.0758-0.15159-0.0758-0.53055 0-2.1222 2.0464-2.1222 2.4253 0 5.836 1.5158 3.4106 1.5158 5.457 1.5158 4.3959-0.0758 7.5034-3.2591 3.7138-3.9412 3.8654-11.369 0.15158-9.9288-7.9582-14.779-5.836-3.4864-14.4-3.7138-0.15158 0 0-0.45476l7.9582-20.085h13.87q1.9706 0 3.638-1.9706z"/>
            <path d="m192.5-277.64-2.5011 6.0634q-0.15158 0.53054-1.2127 0.53054h-13.794l-3.9412 10.308q6.7455 1.6674 8.5645 2.5011 4.3202 1.819 7.4276 5.7602 4.3959 5.7602 4.3202 13.946-0.15158 8.4129-5.5328 14.173-5.457 5.7602-14.022 5.7602-7.276 0-8.7161-3.638-0.0758-0.15159-0.0758-0.53055 0-2.1222 2.0464-2.1222 2.4254 0 5.836 1.5158 3.4106 1.5158 5.457 1.5158 4.3959-0.0758 7.5034-3.2591 3.7138-3.9412 3.8654-11.369 0.15158-9.9288-7.9582-14.779-5.836-3.4864-14.4-3.7138-0.15158 0 0-0.45476l7.9582-20.085h13.87q1.9706 0 3.638-1.9706z"/>
        </g>
    </g>
</svg>
