<svg width="210mm" height="297mm" version="1.1" viewBox="0 0 210 297" xmlns="http://www.w3.org/2000/svg">
    <rect x=".042351" width="209.95" height="297" ry="25" fill="#cdcdcd" stroke-width=".26458"/>
    <g fill="#ba1914" stroke-width=".26458">
        <g aria-label="♦">
            <path d="m104.88 110.67q5.3657 9.1036 13.203 19.534 9.0434 12.058 14.59 18.268-4.4614 4.7026-14.59 18.207-8.1993 10.973-13.143 19.654-1.6278-3.135-4.4614-7.295-4.8834-7.2347-12.118-16.821-1.5675-2.1101-11.033-13.746 6.0892-6.9332 15.675-19.775 7.1141-9.5257 11.877-18.026z"/>
        </g>
        <g aria-label="8">
            <path d="m51.003 62.765q0 4.2444-3.7138 8.3371-4.6991 5.1539-12.657 5.1539-6.5181 0-10.914-4.1686-4.3201-3.9412-4.3201-8.9435t2.9559-8.7161q1.7432-2.1222 8.2613-7.4276-5.6086-5.0781-7.3518-7.8824-2.0464-3.2591-2.0464-8.1855 0-5.836 4.4717-9.474 3.9412-3.2591 9.1708-3.2591 5.9118 0 9.474 3.4864 3.2591 3.2591 3.2591 8.1098 0 5.1539-3.3349 9.095-2.2738 2.6527-6.8213 5.457 7.8066 5.9118 10.838 10.08 2.7285 3.8654 2.7285 8.3371zm-6.8971-33.349q0-3.9412-2.5011-6.4423-2.7285-2.5011-7.2002-2.5011-4.2444 0-7.0487 2.4253-2.7285 2.5011-2.7285 5.7602 0 5.3054 4.1686 9.5498 2.198 2.198 6.7455 5.0023 3.8654-2.8043 5.6086-5.0023 2.9559-3.7896 2.9559-8.7919zm1.9706 35.395q0-5.3812-4.1686-9.7772-2.1222-2.198-9.0951-6.8971-2.5769 2.4253-5.3054 4.8507-3.2591 3.8654-3.2591 9.2466 0 5.3054 3.2591 8.5645 3.1833 3.2591 8.034 3.2591 4.0928 0 7.0487-2.1222 3.4864-2.5769 3.4864-7.1245z"/>
        </g>
        <g transform="scale(1,-1)" aria-label="8">
            <path d="m191.97-233.73q0 4.2444-3.7138 8.3371-4.6991 5.1539-12.657 5.1539-6.5181 0-10.914-4.1686-4.3202-3.9412-4.3202-8.9435 0-5.0023 2.9559-8.7161 1.7432-2.1222 8.2613-7.4276-5.6086-5.0781-7.3518-7.8824-2.0464-3.2591-2.0464-8.1855 0-5.836 4.4717-9.474 3.9412-3.2591 9.1708-3.2591 5.9118 0 9.474 3.4864 3.2591 3.2591 3.2591 8.1098 0 5.1539-3.3348 9.095-2.2738 2.6527-6.8213 5.457 7.8066 5.9118 10.838 10.08 2.7285 3.8654 2.7285 8.3371zm-6.8971-33.349q0-3.9412-2.5011-6.4423-2.7285-2.5011-7.2002-2.5011-4.2444 0-7.0487 2.4254-2.7285 2.5011-2.7285 5.7602 0 5.3054 4.1686 9.5498 2.198 2.198 6.7455 5.0023 3.8654-2.8043 5.6086-5.0023 2.9559-3.7896 2.9559-8.7919zm1.9706 35.395q0-5.3812-4.1686-9.7772-2.1222-2.198-9.095-6.8971-2.5769 2.4254-5.3054 4.8507-3.2591 3.8654-3.2591 9.2466 0 5.3054 3.2591 8.5645 3.1833 3.2591 8.034 3.2591 4.0928 0 7.0487-2.1222 3.4864-2.5769 3.4864-7.1245z"/>
        </g>
    </g>
</svg>
