<svg width="210mm" height="297mm" version="1.1" viewBox="0 0 210 297" xmlns="http://www.w3.org/2000/svg">
    <rect x=".042351" width="209.95" height="297" ry="25" fill="#cdcdcd" stroke-width=".26458"/>
    <g stroke-width=".26458">
        <g fill="#aeaeae" aria-label="♠">
            <path d="m105.06 111.39q1.5675 6.5112 4.8231 11.636 3.2556 5.1246 11.576 12.721 8.3802 7.5362 10.611 11.576 2.2307 4.0394 2.2307 8.1993 0 5.7878-3.8585 9.6463-3.8585 3.8585-9.4051 3.8585-4.7026 0-8.5611-2.8939-3.7982-2.9542-6.7524-8.5611 0.0603 8.8625 2.291 14.108 2.291 5.1849 7.2347 8.1993 5.004 2.9542 13.264 3.4968l0.42202 2.2307h-47.809l0.48231-2.2307q11.093 0 17.182-6.451 6.1495-6.5112 5.9083-19.353-2.713 5.7275-6.7524 8.6214-3.9791 2.8336-9.0434 2.8336-5.426 0-9.3448-3.9188-3.8585-3.9188-3.8585-9.4051 0-4.4011 1.9895-7.9582 2.713-4.9437 8.8022-9.9477 6.0892-5.004 8.9831-8.2596 4.4011-5.004 6.3906-8.9228 2.0498-3.9188 3.1953-9.2242z"
                  fill="#000"/>
        </g>
        <g fill="#b3b3b3" aria-label="0">
            <path d="m51.382 47.228q0 10.535-3.1075 18.342-4.3201 10.687-13.339 10.687-8.9435 0-13.264-10.687-3.1833-7.8824-3.1833-18.342 0-10.308 3.1833-18.266 4.3201-10.762 13.264-10.762 9.0193 0 13.339 10.762 3.1075 7.8066 3.1075 18.266zm-4.9265 0q0-8.2613-2.1222-15.841-3.1075-11.217-9.3982-11.217-6.215 0-9.3224 11.217-2.198 7.655-2.198 15.841 0 8.7161 2.198 16.22 3.0317 10.838 9.3224 10.838 6.3665 0 9.3982-10.914 2.1222-7.4276 2.1222-16.144z"
                  fill="#000"/>
        </g>
        <g transform="scale(1,-1)" fill="#b3b3b3" aria-label="0">
            <path d="m192.35-249.26q0 10.535-3.1075 18.342-4.3202 10.687-13.339 10.687-8.9435 0-13.264-10.687-3.1833-7.8824-3.1833-18.342 0-10.308 3.1833-18.266 4.3202-10.762 13.264-10.762 9.0193 0 13.339 10.762 3.1075 7.8066 3.1075 18.266zm-4.9265 0q0-8.2613-2.1222-15.841-3.1075-11.217-9.3982-11.217-6.215 0-9.3224 11.217-2.198 7.655-2.198 15.841 0 8.7161 2.198 16.22 3.0317 10.838 9.3224 10.838 6.3665 0 9.3982-10.914 2.1222-7.4276 2.1222-16.144z"
                  fill="#000"/>
        </g>
    </g>
</svg>
