<svg width="210mm" height="297mm" version="1.1" viewBox="0 0 210 297" xmlns="http://www.w3.org/2000/svg">
    <rect x=".042351" width="209.95" height="297" ry="25" fill="#cdcdcd" stroke-width=".26458"/>
    <g fill="#b91913" stroke-width=".26458">
        <g aria-label="♦">
            <path d="m104.88 110.67q5.3657 9.1036 13.203 19.534 9.0434 12.058 14.59 18.268-4.4614 4.7026-14.59 18.207-8.1993 10.973-13.143 19.654-1.6278-3.135-4.4614-7.295-4.8834-7.2347-12.118-16.821-1.5675-2.1101-11.033-13.746 6.0892-6.9332 15.675-19.775 7.1141-9.5257 11.877-18.026z"/>
        </g>
        <g aria-label="13">
            <path d="m44.713 75.271h-19.933v-1.5158q4.017-0.15158 5.6086-1.2127 2.198-1.5916 2.198-6.0634v-37.593q0-4.3201-3.1075-4.3201-1.9706 0-5.3812 1.3643v-1.2127l12.809-6.1392v49.341q0 3.2591 1.7432 4.6233 1.819 1.2127 6.0634 1.2127z"/>
            <path d="m87.535 57.081q0 8.6403-5.836 13.87-5.7602 5.3054-14.628 5.3054-2.5769 0-4.7749-0.75792-2.9559-1.0611-2.9559-2.9559 0-1.44 0.75792-2.1222 0.75792-0.60634 1.6674-0.37896 2.198 0.83371 4.4717 1.819 3.4106 1.2885 6.1392 1.0611 4.6233-0.30317 7.8824-3.8654t3.2591-8.5645q0-2.2738-1.1369-5.457-1.5158-4.1686-4.0928-6.2907-2.5011-2.0464-4.7749-2.5769-2.2738-0.60634-6.3665-0.37896v-0.22738q5.7602-2.0464 9.5498-5.5328 4.2444-3.8654 4.2444-8.1855 0-4.4717-2.6527-7.655-2.5769-3.1075-7.3518-3.1075-6.7455 0-10.005 10.384l-1.3643-0.30317q3.0317-12.96 14.097-12.96 6.1392 0 9.1708 4.2444 2.0464 3.0317 2.0464 6.7455 0 7.2002-6.9729 12.43 4.6233 2.5769 6.1392 4.3959 3.4864 3.9412 3.4864 11.066z"/>
        </g>
        <g transform="scale(1,-1)" aria-label="13">
            <path d="m148.46-219.58h-19.933v-1.5158q4.017-0.15159 5.6086-1.2127 2.198-1.5916 2.198-6.0634v-37.593q0-4.3202-3.1075-4.3202-1.9706 0-5.3812 1.3643v-1.2127l12.809-6.1392v49.341q0 3.2591 1.7432 4.6233 1.819 1.2127 6.0634 1.2127z"/>
            <path d="m191.28-237.77q0 8.6403-5.836 13.87-5.7602 5.3054-14.628 5.3054-2.5769 0-4.7749-0.75792-2.9559-1.0611-2.9559-2.9559 0-1.44 0.75792-2.1222 0.75792-0.60634 1.6674-0.37896 2.198 0.83371 4.4717 1.819 3.4106 1.2885 6.1392 1.0611 4.6233-0.30317 7.8824-3.8654t3.2591-8.5645q0-2.2738-1.1369-5.457-1.5158-4.1686-4.0928-6.2907-2.5011-2.0464-4.7749-2.5769-2.2738-0.60634-6.3665-0.37896v-0.22738q5.7602-2.0464 9.5498-5.5328 4.2444-3.8654 4.2444-8.1856 0-4.4717-2.6527-7.655-2.5769-3.1075-7.3518-3.1075-6.7455 0-10.005 10.384l-1.3642-0.30317q3.0317-12.96 14.097-12.96 6.1392 0 9.1708 4.2444 2.0464 3.0317 2.0464 6.7455 0 7.2002-6.9729 12.43 4.6233 2.5769 6.1392 4.3959 3.4864 3.9412 3.4864 11.066z"/>
        </g>
    </g>
</svg>
