<svg width="210mm" height="297mm" version="1.1" viewBox="0 0 210 297" xmlns="http://www.w3.org/2000/svg">
    <rect x=".042351" width="209.95" height="297" ry="25" fill="#cdcdcd" stroke-width=".26458"/>
    <g stroke-width=".26458">
        <g aria-label="♣">
            <path d="m130.71 185.61h-51.125l0.48231-2.0498q9.9477-2.1101 13.203-4.16 4.8834-3.0747 7.9582-9.1036 3.135-6.0289 3.135-12.721 0-0.96462-0.0603-2.7733-3.6776 7.4758-8.9831 10.912-5.2451 3.4365-10.731 3.4365-6.9935 0-11.877-4.8834-4.8834-4.8834-4.8834-11.998 0-6.9935 4.4614-11.756 4.4614-4.8231 10.129-4.8231 3.6173 0 9.8271 3.0747-2.5321-4.2202-3.3159-6.3304-0.72347-2.1704-0.72347-4.6423 0-6.873 4.7628-11.636 4.7628-4.7628 11.877-4.7628 7.1141 0 11.937 4.7628 4.8834 4.7628 4.8834 11.334 0 5.3657-4.1599 11.274 5.0643-2.4116 6.0892-2.713 1.6278-0.48232 3.6776-0.48232 6.0289 0 10.43 4.7628 4.4614 4.7026 4.4614 11.696 0 7.2347-4.8834 12.178-4.8231 4.8834-11.636 4.8834-3.7982 0-7.8376-1.8087-3.9791-1.869-6.9332-4.9437-2.1101-2.2307-5.2452-7.5361 0.24116 9.586 2.8939 15.193 2.713 5.5466 8.2596 9.2242 3.7379 2.4719 13.444 4.3408z"/>
        </g>
        <g aria-label="34">
            <path d="m48.73 57.081q0 8.6403-5.836 13.87-5.7602 5.3054-14.628 5.3054-2.5769 0-4.7749-0.75792-2.9559-1.0611-2.9559-2.9559 0-1.44 0.75792-2.1222 0.75792-0.60634 1.6674-0.37896 2.198 0.83371 4.4717 1.819 3.4106 1.2885 6.1392 1.0611 4.6233-0.30317 7.8824-3.8654t3.2591-8.5645q0-2.2738-1.1369-5.457-1.5158-4.1686-4.0928-6.2907-2.5011-2.0464-4.7749-2.5769-2.2738-0.60634-6.3665-0.37896v-0.22738q5.7602-2.0464 9.5498-5.5328 4.2444-3.8654 4.2444-8.1855 0-4.4717-2.6527-7.655-2.5769-3.1075-7.3518-3.1075-6.7455 0-10.005 10.384l-1.3643-0.30317q3.0317-12.96 14.097-12.96 6.1392 0 9.1708 4.2444 2.0464 3.0317 2.0464 6.7455 0 7.2002-6.9729 12.43 4.6233 2.5769 6.1392 4.3959 3.4864 3.9412 3.4864 11.066z"/>
            <path d="m90.491 60.491h-7.655v14.779h-4.6233v-14.779h-21.222v-3.7138l23.95-38.427h1.8948v38.578h7.655zm-12.354-3.5622v-29.104l-17.963 29.104z"/>
        </g>
        <g transform="scale(1,-1)" aria-label="34">
            <path d="m152.48-237.77q0 8.6403-5.836 13.87-5.7602 5.3054-14.628 5.3054-2.5769 0-4.7749-0.75792-2.9559-1.0611-2.9559-2.9559 0-1.44 0.75792-2.1222 0.75792-0.60634 1.6674-0.37896 2.198 0.83371 4.4717 1.819 3.4106 1.2885 6.1392 1.0611 4.6233-0.30317 7.8824-3.8654t3.2591-8.5645q0-2.2738-1.1369-5.457-1.5158-4.1686-4.0928-6.2907-2.5011-2.0464-4.7749-2.5769-2.2738-0.60634-6.3665-0.37896v-0.22738q5.7602-2.0464 9.5498-5.5328 4.2444-3.8654 4.2444-8.1856 0-4.4717-2.6527-7.655-2.5769-3.1075-7.3518-3.1075-6.7455 0-10.005 10.384l-1.3642-0.30317q3.0317-12.96 14.097-12.96 6.1392 0 9.1708 4.2444 2.0464 3.0317 2.0464 6.7455 0 7.2002-6.9729 12.43 4.6233 2.5769 6.1392 4.3959 3.4864 3.9412 3.4864 11.066z"/>
            <path d="m194.24-234.36h-7.655v14.779h-4.6233v-14.779h-21.222v-3.7138l23.95-38.427h1.8948v38.578h7.655zm-12.354-3.5622v-29.104l-17.963 29.104z"/>
        </g>
    </g>
</svg>
