<svg width="210mm" height="297mm" version="1.1" viewBox="0 0 210 297" xmlns="http://www.w3.org/2000/svg">
    <rect x=".042351" width="209.95" height="297" ry="25" fill="#cdcdcd" stroke-width=".26458"/>
    <g fill="#ba1914" stroke-width=".26458">
        <g aria-label="♦">
            <path d="m104.88 110.67q5.3657 9.1036 13.203 19.534 9.0434 12.058 14.59 18.268-4.4614 4.7026-14.59 18.207-8.1993 10.973-13.143 19.654-1.6278-3.135-4.4614-7.295-4.8834-7.2347-12.118-16.821-1.5675-2.1101-11.033-13.746 6.0892-6.9332 15.675-19.775 7.1141-9.5257 11.877-18.026z"/>
        </g>
        <g aria-label="5">
            <path d="m49.942 17.214-2.5011 6.0634q-0.15158 0.53054-1.2127 0.53054h-13.794l-3.9412 10.308q6.7455 1.6674 8.5645 2.5011 4.3201 1.819 7.4276 5.7602 4.3959 5.7602 4.3201 13.946-0.15158 8.4129-5.5328 14.173-5.457 5.7602-14.022 5.7602-7.276 0-8.7161-3.638-0.07579-0.15158-0.07579-0.53054 0-2.1222 2.0464-2.1222 2.4253 0 5.836 1.5158 3.4106 1.5158 5.457 1.5158 4.3959-0.07579 7.5034-3.2591 3.7138-3.9412 3.8654-11.369 0.15158-9.9288-7.9582-14.779-5.836-3.4864-14.4-3.7138-0.15158 0 0-0.45475l7.9582-20.085h13.87q1.9706 0 3.638-1.9706z"/>
        </g>
        <g transform="scale(1,-1)" aria-label="5">
            <path d="m190.91-279.28-2.5011 6.0634q-0.15158 0.53054-1.2127 0.53054h-13.794l-3.9412 10.308q6.7455 1.6674 8.5645 2.5011 4.3202 1.819 7.4276 5.7602 4.3959 5.7602 4.3202 13.946-0.15159 8.4129-5.5328 14.173-5.457 5.7602-14.022 5.7602-7.276 0-8.7161-3.638-0.0758-0.15159-0.0758-0.53055 0-2.1222 2.0464-2.1222 2.4254 0 5.836 1.5158 3.4106 1.5158 5.457 1.5158 4.3959-0.0758 7.5034-3.2591 3.7138-3.9412 3.8654-11.369 0.15158-9.9288-7.9582-14.779-5.836-3.4864-14.4-3.7138-0.15158 0 0-0.45476l7.9582-20.085h13.87q1.9706 0 3.638-1.9706z"/>
        </g>
    </g>
</svg>
