<svg width="210mm" height="297mm" enable-background="new 0 0 1400 980" version="1.1" viewBox="0 0 793.7 1122.5"
     xmlns="http://www.w3.org/2000/svg">
    <g transform="matrix(3.4662 0 0 3.1911 -1076.4 -1261.3)">
        <path d="m539.18 727.31c0 11.012-8.927 19.939-19.938 19.939h-188.6c-11.012 0-19.938-8.928-19.938-19.939v-311.81c0-11.012 8.927-19.938 19.938-19.938h188.6c11.012 0 19.938 8.926 19.938 19.938z"
              fill="#ccc"/>
        <path d="m528.07 720.73c0 8.067-6.659 14.607-14.874 14.607h-176.5c-8.215 0-14.874-6.54-14.874-14.607v-298.66c0-8.067 6.659-14.608 14.874-14.608h176.5c8.215 0 14.874 6.541 14.874 14.608z"
              fill="#4b4b4b"/>
        <rect x="350.25" y="445.96" width="149.38" height="250.9" fill="none" stroke="#ccc" stroke-miterlimit="10"
              stroke-width="2"/>
        <rect x="335.82" y="424.98" width="179.06" height="290.78" fill="none" stroke="#ccc" stroke-miterlimit="10"
              stroke-width="2.3574"/>
    </g>
</svg>
