<svg width="210mm" height="297mm" version="1.1" viewBox="0 0 210 297" xmlns="http://www.w3.org/2000/svg">
    <rect x=".042351" width="209.95" height="297" ry="25" fill="#cdcdcd" stroke-width=".26458"/>
    <g stroke-width=".26458">
        <g aria-label="♣">
            <path d="m130.71 185.61h-51.125l0.48231-2.0498q9.9477-2.1101 13.203-4.16 4.8834-3.0747 7.9582-9.1036 3.135-6.0289 3.135-12.721 0-0.96462-0.0603-2.7733-3.6776 7.4758-8.9831 10.912-5.2451 3.4365-10.731 3.4365-6.9935 0-11.877-4.8834-4.8834-4.8834-4.8834-11.998 0-6.9935 4.4614-11.756 4.4614-4.8231 10.129-4.8231 3.6173 0 9.8271 3.0747-2.5321-4.2202-3.3159-6.3304-0.72347-2.1704-0.72347-4.6423 0-6.873 4.7628-11.636 4.7628-4.7628 11.877-4.7628 7.1141 0 11.937 4.7628 4.8834 4.7628 4.8834 11.334 0 5.3657-4.1599 11.274 5.0643-2.4116 6.0892-2.713 1.6278-0.48232 3.6776-0.48232 6.0289 0 10.43 4.7628 4.4614 4.7026 4.4614 11.696 0 7.2347-4.8834 12.178-4.8231 4.8834-11.636 4.8834-3.7982 0-7.8376-1.8087-3.9791-1.869-6.9332-4.9437-2.1101-2.2307-5.2452-7.5361 0.24116 9.586 2.8939 15.193 2.713 5.5466 8.2596 9.2242 3.7379 2.4719 13.444 4.3408z"/>
        </g>
        <g aria-label="89">
            <path d="m51.003 62.765q0 4.2444-3.7138 8.3371-4.6991 5.1539-12.657 5.1539-6.5181 0-10.914-4.1686-4.3201-3.9412-4.3201-8.9435t2.9559-8.7161q1.7432-2.1222 8.2613-7.4276-5.6086-5.0781-7.3518-7.8824-2.0464-3.2591-2.0464-8.1855 0-5.836 4.4717-9.474 3.9412-3.2591 9.1708-3.2591 5.9118 0 9.474 3.4864 3.2591 3.2591 3.2591 8.1098 0 5.1539-3.3349 9.095-2.2738 2.6527-6.8213 5.457 7.8066 5.9118 10.838 10.08 2.7285 3.8654 2.7285 8.3371zm-6.8971-33.349q0-3.9412-2.5011-6.4423-2.7285-2.5011-7.2002-2.5011-4.2444 0-7.0487 2.4253-2.7285 2.5011-2.7285 5.7602 0 5.3054 4.1686 9.5498 2.198 2.198 6.7455 5.0023 3.8654-2.8043 5.6086-5.0023 2.9559-3.7896 2.9559-8.7919zm1.9706 35.395q0-5.3812-4.1686-9.7772-2.1222-2.198-9.0951-6.8971-2.5769 2.4253-5.3054 4.8507-3.2591 3.8654-3.2591 9.2466 0 5.3054 3.2591 8.5645 3.1833 3.2591 8.034 3.2591 4.0928 0 7.0487-2.1222 3.4864-2.5769 3.4864-7.1245z"/>
            <path d="m89.127 41.695q0 13.794-7.655 23.647-8.1098 10.535-21.449 11.596l-0.37896-1.2885q11.293-2.3496 18.569-13.112 4.6233-6.7455 5.5328-11.975l-0.22738-0.37896q-4.8507 4.5475-12.581 4.5475-6.6697 0-10.232-5.6086-2.8801-4.5475-2.8801-10.838 0-8.4887 4.2444-14.325 4.2444-5.7602 11.066-5.7602 6.8971 0 11.445 6.5939 4.5475 6.5181 4.5475 16.902zm-5.0781 3.4864v-3.2591q0-7.2002-1.8948-13.036-3.0317-8.9435-9.7772-8.9435-4.5475 0-7.3518 4.7749-2.3496 4.3201-2.4253 10.384-0.07579 6.7455 2.5011 11.596 3.1833 5.7602 9.0193 5.6844 1.9706 0 4.7749-1.2127 2.6527-1.0611 3.8654-2.3496 1.2885-0.9095 1.2885-3.638z"/>
        </g>
        <g transform="scale(1,-1)" aria-label="89">
            <path d="m154.75-232.09q0 4.2444-3.7138 8.3371-4.6991 5.1539-12.657 5.1539-6.5181 0-10.914-4.1686-4.3202-3.9412-4.3202-8.9435 0-5.0023 2.9559-8.7161 1.7432-2.1222 8.2613-7.4276-5.6086-5.0781-7.3518-7.8824-2.0464-3.2591-2.0464-8.1855 0-5.836 4.4717-9.474 3.9412-3.2591 9.1708-3.2591 5.9118 0 9.474 3.4864 3.2591 3.2591 3.2591 8.1098 0 5.1539-3.3349 9.095-2.2738 2.6527-6.8213 5.457 7.8066 5.9118 10.838 10.08 2.7285 3.8654 2.7285 8.3371zm-6.8971-33.349q0-3.9412-2.5011-6.4423-2.7285-2.5011-7.2002-2.5011-4.2444 0-7.0487 2.4254-2.7285 2.5011-2.7285 5.7602 0 5.3054 4.1686 9.5498 2.198 2.198 6.7455 5.0023 3.8654-2.8043 5.6086-5.0023 2.9559-3.7896 2.9559-8.7919zm1.9706 35.395q0-5.3812-4.1686-9.7772-2.1222-2.198-9.095-6.8971-2.5769 2.4254-5.3054 4.8507-3.2591 3.8654-3.2591 9.2466 0 5.3054 3.2591 8.5645 3.1833 3.2591 8.034 3.2591 4.0928 0 7.0487-2.1222 3.4864-2.5769 3.4864-7.1245z"/>
            <path d="m192.87-253.16q0 13.794-7.655 23.647-8.1098 10.535-21.449 11.596l-0.37896-1.2885q11.293-2.3496 18.569-13.112 4.6233-6.7455 5.5328-11.975l-0.22737-0.37896q-4.8507 4.5475-12.581 4.5475-6.6697 0-10.232-5.6086-2.8801-4.5475-2.8801-10.838 0-8.4887 4.2444-14.325 4.2444-5.7602 11.066-5.7602 6.8971 0 11.445 6.5939 4.5475 6.5181 4.5475 16.902zm-5.0781 3.4864v-3.2591q0-7.2002-1.8948-13.036-3.0317-8.9435-9.7772-8.9435-4.5475 0-7.3518 4.7749-2.3496 4.3202-2.4254 10.384-0.0758 6.7455 2.5011 11.596 3.1833 5.7602 9.0193 5.6844 1.9706 0 4.7749-1.2127 2.6527-1.0611 3.8654-2.3496 1.2885-0.9095 1.2885-3.638z"/>
        </g>
    </g>
</svg>
