<svg width="210mm" height="297mm" version="1.1" viewBox="0 0 210 297" xmlns="http://www.w3.org/2000/svg">
    <rect x=".042351" width="209.95" height="297" ry="25" fill="#cdcdcd" stroke-width=".26458"/>
    <g stroke-width=".26458">
        <g fill="#aeaeae" aria-label="♠">
            <path d="m105.06 111.39q1.5675 6.5112 4.8231 11.636 3.2556 5.1246 11.576 12.721 8.3802 7.5362 10.611 11.576 2.2307 4.0394 2.2307 8.1993 0 5.7878-3.8585 9.6463-3.8585 3.8585-9.4051 3.8585-4.7026 0-8.5611-2.8939-3.7982-2.9542-6.7524-8.5611 0.0603 8.8625 2.291 14.108 2.291 5.1849 7.2347 8.1993 5.004 2.9542 13.264 3.4968l0.42202 2.2307h-47.809l0.48231-2.2307q11.093 0 17.182-6.451 6.1495-6.5112 5.9083-19.353-2.713 5.7275-6.7524 8.6214-3.9791 2.8336-9.0434 2.8336-5.426 0-9.3448-3.9188-3.8585-3.9188-3.8585-9.4051 0-4.4011 1.9895-7.9582 2.713-4.9437 8.8022-9.9477 6.0892-5.004 8.9831-8.2596 4.4011-5.004 6.3906-8.9228 2.0498-3.9188 3.1953-9.2242z"
                  fill="#000"/>
        </g>
        <g fill="#b3b3b3" aria-label="2">
            <path d="m51.458 64.205-3.8654 11.066h-28.574v-0.37896l13.188-16.068q10.005-12.203 10.611-22.51 0.37896-4.8507-2.198-8.8677-3.1833-5.0781-9.3224-5.0781-4.3959 0-7.1245 4.4717-0.9853 1.5158-3.3349 8.034l-1.5916-0.22738q1.5916-8.6403 6.1392-12.809 3.8654-3.4864 9.1708-3.4864 5.3812 0 9.1708 3.9412 4.017 4.3959 4.017 11.066 0 10.838-7.8824 20.464l-14.249 17.281h16.977q2.5011 0 3.9412-1.44 1.2127-1.1369 3.4864-5.457z"
                  fill="#000"/>
        </g>
        <g transform="scale(1,-1)" fill="#b3b3b3" aria-label="2">
            <path d="m192.42-232.28-3.8654 11.066h-28.574v-0.37896l13.188-16.068q10.005-12.203 10.611-22.51 0.37896-4.8507-2.198-8.8677-3.1833-5.0781-9.3224-5.0781-4.3959 0-7.1244 4.4717-0.9853 1.5158-3.3348 8.034l-1.5916-0.22738q1.5916-8.6403 6.1392-12.809 3.8654-3.4864 9.1708-3.4864 5.3812 0 9.1708 3.9412 4.017 4.3959 4.017 11.066 0 10.838-7.8824 20.464l-14.249 17.281h16.977q2.5011 0 3.9412-1.44 1.2127-1.1369 3.4864-5.457z"
                  fill="#000"/>
        </g>
    </g>
</svg>
