<svg width="210mm" height="297mm" version="1.1" viewBox="0 0 210 297" xmlns="http://www.w3.org/2000/svg">
    <rect x=".042351" width="209.95" height="297" ry="25" fill="#cdcdcd" stroke-width=".26458"/>
    <g stroke-width=".26458">
        <g aria-label="♣">
            <path d="m130.71 185.61h-51.125l0.48231-2.0498q9.9477-2.1101 13.203-4.16 4.8834-3.0747 7.9582-9.1036 3.135-6.0289 3.135-12.721 0-0.96462-0.0603-2.7733-3.6776 7.4758-8.9831 10.912-5.2451 3.4365-10.731 3.4365-6.9935 0-11.877-4.8834-4.8834-4.8834-4.8834-11.998 0-6.9935 4.4614-11.756 4.4614-4.8231 10.129-4.8231 3.6173 0 9.8271 3.0747-2.5321-4.2202-3.3159-6.3304-0.72347-2.1704-0.72347-4.6423 0-6.873 4.7628-11.636 4.7628-4.7628 11.877-4.7628 7.1141 0 11.937 4.7628 4.8834 4.7628 4.8834 11.334 0 5.3657-4.1599 11.274 5.0643-2.4116 6.0892-2.713 1.6278-0.48232 3.6776-0.48232 6.0289 0 10.43 4.7628 4.4614 4.7026 4.4614 11.696 0 7.2347-4.8834 12.178-4.8231 4.8834-11.636 4.8834-3.7982 0-7.8376-1.8087-3.9791-1.869-6.9332-4.9437-2.1101-2.2307-5.2452-7.5361 0.24116 9.586 2.8939 15.193 2.713 5.5466 8.2596 9.2242 3.7379 2.4719 13.444 4.3408z"/>
        </g>
        <g aria-label="21">
            <path d="m51.458 64.205-3.8654 11.066h-28.574v-0.37896l13.188-16.068q10.005-12.203 10.611-22.51 0.37896-4.8507-2.198-8.8677-3.1833-5.0781-9.3224-5.0781-4.3959 0-7.1245 4.4717-0.9853 1.5158-3.3349 8.034l-1.5916-0.22738q1.5916-8.6403 6.1392-12.809 3.8654-3.4864 9.1708-3.4864 5.3812 0 9.1708 3.9412 4.017 4.3959 4.017 11.066 0 10.838-7.8824 20.464l-14.249 17.281h16.977q2.5011 0 3.9412-1.44 1.2127-1.1369 3.4864-5.457z"/>
            <path d="m83.518 75.271h-19.933v-1.5158q4.017-0.15158 5.6086-1.2127 2.198-1.5916 2.198-6.0634v-37.593q0-4.3201-3.1075-4.3201-1.9706 0-5.3812 1.3643v-1.2127l12.809-6.1392v49.341q0 3.2591 1.7432 4.6233 1.819 1.2127 6.0634 1.2127z"/>
        </g>
        <g transform="scale(1,-1)" aria-label="21">
            <path d="m155.21-230.65-3.8654 11.066h-28.574v-0.37896l13.188-16.068q10.005-12.203 10.611-22.51 0.37896-4.8507-2.198-8.8677-3.1833-5.0781-9.3224-5.0781-4.3959 0-7.1245 4.4717-0.9853 1.5158-3.3348 8.034l-1.5916-0.22738q1.5916-8.6403 6.1392-12.809 3.8654-3.4864 9.1708-3.4864 5.3812 0 9.1708 3.9412 4.017 4.3959 4.017 11.066 0 10.838-7.8824 20.464l-14.249 17.281h16.977q2.5011 0 3.9412-1.44 1.2127-1.1369 3.4864-5.457z"/>
            <path d="m187.27-219.58h-19.933v-1.5158q4.017-0.15159 5.6086-1.2127 2.198-1.5916 2.198-6.0634v-37.593q0-4.3202-3.1075-4.3202-1.9706 0-5.3812 1.3643v-1.2127l12.809-6.1392v49.341q0 3.2591 1.7432 4.6233 1.819 1.2127 6.0634 1.2127z"/>
        </g>
    </g>
</svg>
