<svg width="210mm" height="297mm" version="1.1" viewBox="0 0 210 297" xmlns="http://www.w3.org/2000/svg">
    <rect x=".042351" width="209.95" height="297" ry="25" fill="#cdcdcd" stroke-width=".26458"/>
    <g fill="#ba1914" stroke-width=".26458" aria-label="?">
        <path d="m125.08 124.38q0 4.8231-2.6527 11.214-2.1704 6.0289-4.8231 9.5257-9.5257 12.661-12.54 25.804h-2.1704q0.24116-5.9083 4.9437-18.328l3.2556-8.8022q4.4614-11.696 4.4614-20.498 0-7.1141-3.135-11.817-3.6173-5.426-10.49-5.426-4.0997 0-8.0787 2.8939-3.8585 2.8939-3.8585 6.2701 0 1.6881 2.1704 4.0997 2.0498 2.5321 2.0498 5.0643 0 4.9437-3.9791 4.9437-5.3054 0-5.3054-7.8376 0-9.1639 6.3906-14.469 5.426-4.3408 12.54-4.3408 4.9437 0 10.008 2.291 5.0643 2.291 7.2347 5.5466 3.9791 5.6672 3.9791 13.866zm-14.711 63.906q0 2.8939-1.6881 4.582-1.8087 1.4469-4.0996 1.4469-2.0498 0-3.7379-1.3264-1.9292-1.8087-1.9292-4.7026 0-3.0144 1.6881-4.9437 1.6881-1.9292 3.9791-1.9292 2.4116 0 4.2202 2.0498 1.5675 1.9292 1.5675 4.8231z"/>
    </g>
</svg>
