<svg width="210mm" height="297mm" version="1.1" viewBox="0 0 210 297" xmlns="http://www.w3.org/2000/svg">
    <rect x=".042351" width="209.95" height="297" ry="25" fill="#cdcdcd" stroke-width=".26458"/>
    <g fill="#ba1914" stroke-width=".26458" aria-label="☕">
        <path d="m98.127 90.02q5.6672 0 10.973 1.5072 5.3657 1.5072 10.008 4.3408t8.4405 6.873q3.8585 3.9791 6.5112 8.9831 0.36173-0.0603 0.66318-0.0603 0.36173 0 0.72347 0 5.3657 0 10.068 2.0498t8.1993 5.6069q3.5571 3.4968 5.5466 8.1993 2.0498 4.7025 2.0498 10.068 0 5.0643-1.8087 9.586-1.8087 4.4614-5.004 7.9582-3.1953 3.4968-7.5361 5.6672-4.3408 2.1704-9.4051 2.5924-1.7484 6.7524-5.4863 12.42-3.7379 5.6069-8.9831 9.6462-5.2452 4.0394-11.636 6.2701-6.3906 2.291-13.324 2.291-5.6069 0-10.792-1.4469-5.1849-1.4469-9.7065-4.0996-4.5217-2.6527-8.2596-6.3304-3.6776-3.7379-6.3304-8.2596-2.6527-4.5217-4.0997-9.7065-1.4469-5.1849-1.4469-10.792 0-5.7275-0.06029-11.334 0-5.6672 0-11.395 0-5.6069 1.4469-10.792 1.4469-5.1848 4.0997-9.7065t6.3906-8.1993q3.7379-3.7379 8.2596-6.3906 4.5217-2.6527 9.7065-4.0997 5.1849-1.4469 10.792-1.4469zm40.695 40.635q0 6.0289 0 11.937 0.0603 5.9083-0.0603 11.877 3.0145-0.60289 5.5466-2.1101 2.5924-1.5675 4.4011-3.7982 1.869-2.291 2.8939-5.0643 1.0852-2.8336 1.0852-5.9083 0-3.2556-1.2058-6.2098-1.1455-2.9542-3.1953-5.2452-1.9895-2.291-4.8231-3.7982-2.7733-1.5072-6.0289-1.869 0.66318 2.5321 0.96462 5.0643 0.36173 2.5321 0.36173 5.1246zm-4.8834 2.5321q0-0.78376-0.24116-1.869-0.24115-1.1455-0.60289-2.291-0.36173-1.1455-0.78375-2.1704-0.42203-1.0852-0.78376-1.8087-2.2307-4.6422-5.7878-8.561-3.5571-3.9791-7.9582-6.873-4.4011-2.8939-9.4654-4.5217-5.004-1.6881-10.189-1.6881-5.1849 0-10.249 1.6278-5.004 1.6278-9.4654 4.5217-4.4011 2.8336-7.9582 6.8127-3.5571 3.9188-5.7878 8.561-0.36174 0.72346-0.78376 1.8087-0.42202 1.0852-0.78376 2.2307-0.36173 1.1455-0.60289 2.291-0.24116 1.0852-0.24116 1.9292 0 1.0249 0.18087 2.3513 0.24116 1.3264 0.5426 2.713t0.66318 2.713q0.42202 1.2661 0.78376 2.2307 1.9895 5.2452 5.3657 9.586 3.3762 4.2805 7.7773 7.3553 4.4614 3.0747 9.7065 4.7628 5.2451 1.6881 10.852 1.6881t10.792-1.6881q5.2452-1.6881 9.6462-4.7628 4.4614-3.0747 7.8376-7.3553 3.3762-4.3408 5.3657-9.586 0.36174-0.96462 0.72347-2.2307 0.42203-1.3264 0.72347-2.713 0.30145-1.3866 0.48231-2.713 0.24116-1.3264 0.24116-2.3513zm13.746 32.074q-0.96463 6.0289-3.3159 11.455-2.3513 5.426-5.7878 10.068-3.4365 4.6423-7.8376 8.3802-4.4011 3.7379-9.586 6.3304-5.1246 2.6527-10.852 4.0394-5.7275 1.4469-11.817 1.4469-6.873 0-13.264-1.8087-6.3304-1.7484-11.877-5.004t-10.068-7.7773q-4.5217-4.5217-7.7773-10.068-3.2556-5.5466-5.0643-11.877-1.7484-6.3906-1.7484-13.264 0-5.3657 1.0852-10.611 1.1455-5.2452 3.3762-10.129v16.941q0 6.2098 1.5675 11.937 1.6278 5.7275 4.582 10.731t7.0538 9.1036q4.0997 4.0997 9.1036 7.0538t10.731 4.5217q5.7275 1.6278 11.937 1.6278 7.295 0 14.047-2.291 6.7524-2.2307 12.359-6.3304 5.6672-4.0394 9.8874-9.7668 4.2202-5.7275 6.5112-12.661 1.7484-0.30145 3.4365-0.84405 1.6881-0.5426 3.3159-1.2058z"/>
    </g>
</svg>
